<mxfile host="app.diagrams.net" modified="2024-05-31T09:21:45.515Z" agent="Mozilla/5.0 (Windows NT 10.0; Win64; x64) AppleWebKit/537.36 (KHTML, like Gecko) Chrome/125.0.0.0 Safari/537.36" etag="BcDRcUsl_4XJXuE6MUvd" version="24.4.10" type="github">
  <diagram name="Page-1" id="c0dOsrUdXIFkT4l_e6Ok">
    <mxGraphModel dx="880" dy="1603" grid="1" gridSize="10" guides="1" tooltips="1" connect="1" arrows="1" fold="1" page="1" pageScale="1" pageWidth="827" pageHeight="1169" math="0" shadow="0">
      <root>
        <mxCell id="0" />
        <mxCell id="1" parent="0" />
        <mxCell id="QD0-zCTOTz4r3Engb4al-22" value="" style="group;fillColor=#dae8fc;strokeColor=#6c8ebf;" vertex="1" connectable="0" parent="1">
          <mxGeometry x="70" y="150" width="570" height="210" as="geometry" />
        </mxCell>
        <mxCell id="QD0-zCTOTz4r3Engb4al-17" value="Lost item" style="rounded=0;whiteSpace=wrap;html=1;" vertex="1" parent="QD0-zCTOTz4r3Engb4al-22">
          <mxGeometry x="50" y="103.13" width="115.71" height="53.75" as="geometry" />
        </mxCell>
        <mxCell id="QD0-zCTOTz4r3Engb4al-18" value="Driver" style="rounded=0;whiteSpace=wrap;html=1;" vertex="1" parent="QD0-zCTOTz4r3Engb4al-22">
          <mxGeometry x="194.76" y="106.25" width="115.24" height="47.5" as="geometry" />
        </mxCell>
        <mxCell id="QD0-zCTOTz4r3Engb4al-19" value="Passenger" style="rounded=0;whiteSpace=wrap;html=1;" vertex="1" parent="QD0-zCTOTz4r3Engb4al-22">
          <mxGeometry x="340" y="106.25" width="119.52" height="47.5" as="geometry" />
        </mxCell>
        <mxCell id="QD0-zCTOTz4r3Engb4al-25" value="&lt;h1 style=&quot;margin-top: 0px;&quot;&gt;Entities&lt;/h1&gt;" style="text;html=1;whiteSpace=wrap;overflow=hidden;rounded=0;" vertex="1" parent="QD0-zCTOTz4r3Engb4al-22">
          <mxGeometry x="220" y="20" width="120" height="40" as="geometry" />
        </mxCell>
        <mxCell id="QD0-zCTOTz4r3Engb4al-21" value="" style="group;fillColor=#ffe6cc;strokeColor=#d79b00;" vertex="1" connectable="0" parent="1">
          <mxGeometry x="130" y="-90" width="410" height="180" as="geometry" />
        </mxCell>
        <mxCell id="QD0-zCTOTz4r3Engb4al-56" value="" style="edgeStyle=orthogonalEdgeStyle;rounded=0;orthogonalLoop=1;jettySize=auto;html=1;" edge="1" parent="QD0-zCTOTz4r3Engb4al-21" source="QD0-zCTOTz4r3Engb4al-12" target="QD0-zCTOTz4r3Engb4al-13">
          <mxGeometry relative="1" as="geometry" />
        </mxCell>
        <mxCell id="QD0-zCTOTz4r3Engb4al-12" value="LostItem DB" style="shape=partialRectangle;whiteSpace=wrap;html=1;left=0;right=0;fillColor=none;" vertex="1" parent="QD0-zCTOTz4r3Engb4al-21">
          <mxGeometry y="30" width="120" height="72" as="geometry" />
        </mxCell>
        <mxCell id="QD0-zCTOTz4r3Engb4al-55" value="" style="edgeStyle=orthogonalEdgeStyle;rounded=0;orthogonalLoop=1;jettySize=auto;html=1;" edge="1" parent="QD0-zCTOTz4r3Engb4al-21" source="QD0-zCTOTz4r3Engb4al-13" target="QD0-zCTOTz4r3Engb4al-12">
          <mxGeometry relative="1" as="geometry" />
        </mxCell>
        <mxCell id="QD0-zCTOTz4r3Engb4al-13" value="Passengers DB" style="shape=partialRectangle;whiteSpace=wrap;html=1;left=0;right=0;fillColor=none;" vertex="1" parent="QD0-zCTOTz4r3Engb4al-21">
          <mxGeometry x="142.5" y="30" width="115" height="72" as="geometry" />
        </mxCell>
        <mxCell id="QD0-zCTOTz4r3Engb4al-14" value="Drivers DB" style="shape=partialRectangle;whiteSpace=wrap;html=1;left=0;right=0;fillColor=none;" vertex="1" parent="QD0-zCTOTz4r3Engb4al-21">
          <mxGeometry x="290" y="30" width="120" height="72" as="geometry" />
        </mxCell>
        <mxCell id="QD0-zCTOTz4r3Engb4al-26" value="&lt;h1 style=&quot;margin-top: 0px;&quot;&gt;Data Store&lt;/h1&gt;" style="text;html=1;whiteSpace=wrap;overflow=hidden;rounded=0;" vertex="1" parent="QD0-zCTOTz4r3Engb4al-21">
          <mxGeometry x="135" y="132.00000000000003" width="130" height="36" as="geometry" />
        </mxCell>
        <mxCell id="QD0-zCTOTz4r3Engb4al-75" value="" style="endArrow=classic;startArrow=classic;html=1;rounded=0;" edge="1" parent="QD0-zCTOTz4r3Engb4al-21" source="QD0-zCTOTz4r3Engb4al-13" target="QD0-zCTOTz4r3Engb4al-14">
          <mxGeometry width="50" height="50" relative="1" as="geometry">
            <mxPoint x="230" y="60" as="sourcePoint" />
            <mxPoint x="280" y="10" as="targetPoint" />
          </mxGeometry>
        </mxCell>
        <mxCell id="QD0-zCTOTz4r3Engb4al-24" value="" style="group;fillColor=#d5e8d4;strokeColor=#82b366;" vertex="1" connectable="0" parent="1">
          <mxGeometry x="86" y="490" width="655" height="275" as="geometry" />
        </mxCell>
        <mxCell id="QD0-zCTOTz4r3Engb4al-1" value="Item Found" style="ellipse;whiteSpace=wrap;html=1;aspect=fixed;" vertex="1" parent="QD0-zCTOTz4r3Engb4al-24">
          <mxGeometry x="104.37875" y="18.130000000000003" width="81.875" height="81.875" as="geometry" />
        </mxCell>
        <mxCell id="QD0-zCTOTz4r3Engb4al-2" value="Record Details" style="ellipse;whiteSpace=wrap;html=1;aspect=fixed;" vertex="1" parent="QD0-zCTOTz4r3Engb4al-24">
          <mxGeometry x="186.2525" y="38.14" width="81.875" height="81.875" as="geometry" />
        </mxCell>
        <mxCell id="QD0-zCTOTz4r3Engb4al-3" value="Record Passenger Info&lt;div&gt;Optional&lt;/div&gt;" style="ellipse;whiteSpace=wrap;html=1;aspect=fixed;" vertex="1" parent="QD0-zCTOTz4r3Engb4al-24">
          <mxGeometry x="268.12625" y="18.13" width="81.875" height="81.875" as="geometry" />
        </mxCell>
        <mxCell id="QD0-zCTOTz4r3Engb4al-4" value="Store Info" style="ellipse;whiteSpace=wrap;html=1;aspect=fixed;" vertex="1" parent="QD0-zCTOTz4r3Engb4al-24">
          <mxGeometry x="-1.873125000000016" y="10" width="81.875" height="81.875" as="geometry" />
        </mxCell>
        <mxCell id="QD0-zCTOTz4r3Engb4al-5" value="reportLostItem" style="ellipse;whiteSpace=wrap;html=1;aspect=fixed;" vertex="1" parent="QD0-zCTOTz4r3Engb4al-24">
          <mxGeometry x="469.995625" y="10" width="81.875" height="81.875" as="geometry" />
        </mxCell>
        <mxCell id="QD0-zCTOTz4r3Engb4al-6" value="Search lost item" style="ellipse;whiteSpace=wrap;html=1;aspect=fixed;" vertex="1" parent="QD0-zCTOTz4r3Engb4al-24">
          <mxGeometry x="420.001875" y="109.99499999999999" width="81.875" height="81.875" as="geometry" />
        </mxCell>
        <mxCell id="QD0-zCTOTz4r3Engb4al-7" value="Matchlost Item" style="ellipse;whiteSpace=wrap;html=1;aspect=fixed;" vertex="1" parent="QD0-zCTOTz4r3Engb4al-24">
          <mxGeometry x="50.91312500000001" y="120.015" width="81.875" height="81.875" as="geometry" />
        </mxCell>
        <mxCell id="QD0-zCTOTz4r3Engb4al-8" value="Mark Item&lt;div&gt;returned&amp;nbsp;&lt;/div&gt;" style="ellipse;whiteSpace=wrap;html=1;aspect=fixed;" vertex="1" parent="QD0-zCTOTz4r3Engb4al-24">
          <mxGeometry x="349.999375" y="28.120000000000005" width="81.875" height="81.875" as="geometry" />
        </mxCell>
        <mxCell id="QD0-zCTOTz4r3Engb4al-9" value="Generate Report" style="ellipse;whiteSpace=wrap;html=1;aspect=fixed;" vertex="1" parent="QD0-zCTOTz4r3Engb4al-24">
          <mxGeometry x="570.00125" y="100" width="81.875" height="81.875" as="geometry" />
        </mxCell>
        <mxCell id="QD0-zCTOTz4r3Engb4al-27" value="&lt;h1 style=&quot;margin-top: 0px;&quot;&gt;Processes&lt;/h1&gt;" style="text;html=1;whiteSpace=wrap;overflow=hidden;rounded=0;" vertex="1" parent="QD0-zCTOTz4r3Engb4al-24">
          <mxGeometry x="255" y="210" width="145" height="55" as="geometry" />
        </mxCell>
        <mxCell id="QD0-zCTOTz4r3Engb4al-36" value="" style="endArrow=classic;html=1;rounded=0;entryX=0.25;entryY=1;entryDx=0;entryDy=0;" edge="1" parent="1" source="QD0-zCTOTz4r3Engb4al-1" target="QD0-zCTOTz4r3Engb4al-18">
          <mxGeometry width="50" height="50" relative="1" as="geometry">
            <mxPoint x="320" y="390" as="sourcePoint" />
            <mxPoint x="370" y="340" as="targetPoint" />
            <Array as="points">
              <mxPoint x="280" y="370" />
            </Array>
          </mxGeometry>
        </mxCell>
        <mxCell id="QD0-zCTOTz4r3Engb4al-37" value="MarkItem" style="edgeLabel;html=1;align=center;verticalAlign=middle;resizable=0;points=[];" vertex="1" connectable="0" parent="QD0-zCTOTz4r3Engb4al-36">
          <mxGeometry x="-0.0646" y="1" relative="1" as="geometry">
            <mxPoint as="offset" />
          </mxGeometry>
        </mxCell>
        <mxCell id="QD0-zCTOTz4r3Engb4al-38" value="" style="endArrow=classic;html=1;rounded=0;" edge="1" parent="1" source="QD0-zCTOTz4r3Engb4al-2">
          <mxGeometry width="50" height="50" relative="1" as="geometry">
            <mxPoint x="320" y="450" as="sourcePoint" />
            <mxPoint x="310" y="300" as="targetPoint" />
            <Array as="points" />
          </mxGeometry>
        </mxCell>
        <mxCell id="QD0-zCTOTz4r3Engb4al-39" value="Enter Details" style="edgeLabel;html=1;align=center;verticalAlign=middle;resizable=0;points=[];" vertex="1" connectable="0" parent="QD0-zCTOTz4r3Engb4al-38">
          <mxGeometry x="0.1689" relative="1" as="geometry">
            <mxPoint as="offset" />
          </mxGeometry>
        </mxCell>
        <mxCell id="QD0-zCTOTz4r3Engb4al-40" value="" style="endArrow=classic;html=1;rounded=0;" edge="1" parent="1" source="QD0-zCTOTz4r3Engb4al-3" target="QD0-zCTOTz4r3Engb4al-18">
          <mxGeometry width="50" height="50" relative="1" as="geometry">
            <mxPoint x="290" y="420" as="sourcePoint" />
            <mxPoint x="340" y="370" as="targetPoint" />
            <Array as="points" />
          </mxGeometry>
        </mxCell>
        <mxCell id="QD0-zCTOTz4r3Engb4al-41" value="EntersPassengerInfo" style="edgeLabel;html=1;align=center;verticalAlign=middle;resizable=0;points=[];" vertex="1" connectable="0" parent="QD0-zCTOTz4r3Engb4al-40">
          <mxGeometry x="0.519" y="2" relative="1" as="geometry">
            <mxPoint x="5" y="24" as="offset" />
          </mxGeometry>
        </mxCell>
        <mxCell id="QD0-zCTOTz4r3Engb4al-43" value="" style="endArrow=classic;html=1;rounded=0;" edge="1" parent="1" source="QD0-zCTOTz4r3Engb4al-4" target="QD0-zCTOTz4r3Engb4al-12">
          <mxGeometry width="50" height="50" relative="1" as="geometry">
            <mxPoint x="364" y="410" as="sourcePoint" />
            <mxPoint x="230" y="230" as="targetPoint" />
            <Array as="points">
              <mxPoint x="110" y="240" />
            </Array>
          </mxGeometry>
        </mxCell>
        <mxCell id="QD0-zCTOTz4r3Engb4al-44" value="System stores" style="edgeLabel;html=1;align=center;verticalAlign=middle;resizable=0;points=[];" vertex="1" connectable="0" parent="QD0-zCTOTz4r3Engb4al-43">
          <mxGeometry x="-0.7959" relative="1" as="geometry">
            <mxPoint as="offset" />
          </mxGeometry>
        </mxCell>
        <mxCell id="QD0-zCTOTz4r3Engb4al-62" value="Text" style="edgeLabel;html=1;align=center;verticalAlign=middle;resizable=0;points=[];" vertex="1" connectable="0" parent="QD0-zCTOTz4r3Engb4al-43">
          <mxGeometry x="0.5038" y="1" relative="1" as="geometry">
            <mxPoint as="offset" />
          </mxGeometry>
        </mxCell>
        <mxCell id="QD0-zCTOTz4r3Engb4al-48" value="" style="endArrow=classic;html=1;rounded=0;" edge="1" parent="1" source="QD0-zCTOTz4r3Engb4al-19" target="QD0-zCTOTz4r3Engb4al-5">
          <mxGeometry width="50" height="50" relative="1" as="geometry">
            <mxPoint x="490" y="310" as="sourcePoint" />
            <mxPoint x="360" y="320" as="targetPoint" />
            <Array as="points" />
          </mxGeometry>
        </mxCell>
        <mxCell id="QD0-zCTOTz4r3Engb4al-50" value="" style="endArrow=classic;html=1;rounded=0;" edge="1" parent="1" source="QD0-zCTOTz4r3Engb4al-19" target="QD0-zCTOTz4r3Engb4al-6">
          <mxGeometry width="50" height="50" relative="1" as="geometry">
            <mxPoint x="340" y="430" as="sourcePoint" />
            <mxPoint x="390" y="380" as="targetPoint" />
          </mxGeometry>
        </mxCell>
        <mxCell id="QD0-zCTOTz4r3Engb4al-52" value="" style="endArrow=classic;html=1;rounded=0;" edge="1" parent="1" source="QD0-zCTOTz4r3Engb4al-17" target="QD0-zCTOTz4r3Engb4al-7">
          <mxGeometry width="50" height="50" relative="1" as="geometry">
            <mxPoint x="340" y="490" as="sourcePoint" />
            <mxPoint x="390" y="440" as="targetPoint" />
          </mxGeometry>
        </mxCell>
        <mxCell id="QD0-zCTOTz4r3Engb4al-53" value="" style="endArrow=classic;html=1;rounded=0;" edge="1" parent="1" source="QD0-zCTOTz4r3Engb4al-18" target="QD0-zCTOTz4r3Engb4al-8">
          <mxGeometry width="50" height="50" relative="1" as="geometry">
            <mxPoint x="340" y="300" as="sourcePoint" />
            <mxPoint x="390" y="330" as="targetPoint" />
          </mxGeometry>
        </mxCell>
        <mxCell id="QD0-zCTOTz4r3Engb4al-54" value="" style="endArrow=classic;html=1;rounded=0;" edge="1" parent="1" source="QD0-zCTOTz4r3Engb4al-14" target="QD0-zCTOTz4r3Engb4al-9">
          <mxGeometry width="50" height="50" relative="1" as="geometry">
            <mxPoint x="520" y="70" as="sourcePoint" />
            <mxPoint x="390" y="130" as="targetPoint" />
          </mxGeometry>
        </mxCell>
        <mxCell id="QD0-zCTOTz4r3Engb4al-63" value="" style="endArrow=classic;html=1;rounded=0;exitX=0.557;exitY=0.037;exitDx=0;exitDy=0;exitPerimeter=0;" edge="1" parent="1" source="QD0-zCTOTz4r3Engb4al-18" target="QD0-zCTOTz4r3Engb4al-13">
          <mxGeometry width="50" height="50" relative="1" as="geometry">
            <mxPoint x="360" y="270" as="sourcePoint" />
            <mxPoint x="410" y="220" as="targetPoint" />
          </mxGeometry>
        </mxCell>
        <mxCell id="QD0-zCTOTz4r3Engb4al-65" value="Report on Lost and FoundItems" style="edgeLabel;html=1;align=center;verticalAlign=middle;resizable=0;points=[];" vertex="1" connectable="0" parent="QD0-zCTOTz4r3Engb4al-63">
          <mxGeometry x="-0.6693" y="-1" relative="1" as="geometry">
            <mxPoint as="offset" />
          </mxGeometry>
        </mxCell>
        <mxCell id="QD0-zCTOTz4r3Engb4al-69" value="" style="endArrow=classic;html=1;rounded=0;exitX=0.25;exitY=1;exitDx=0;exitDy=0;" edge="1" parent="1" source="QD0-zCTOTz4r3Engb4al-14" target="QD0-zCTOTz4r3Engb4al-17">
          <mxGeometry width="50" height="50" relative="1" as="geometry">
            <mxPoint x="360" y="170" as="sourcePoint" />
            <mxPoint x="410" y="120" as="targetPoint" />
          </mxGeometry>
        </mxCell>
        <mxCell id="QD0-zCTOTz4r3Engb4al-70" value="LostItem Details" style="edgeLabel;html=1;align=center;verticalAlign=middle;resizable=0;points=[];" vertex="1" connectable="0" parent="QD0-zCTOTz4r3Engb4al-69">
          <mxGeometry x="0.0884" relative="1" as="geometry">
            <mxPoint y="-1" as="offset" />
          </mxGeometry>
        </mxCell>
        <mxCell id="QD0-zCTOTz4r3Engb4al-71" value="" style="endArrow=classic;html=1;rounded=0;" edge="1" parent="1" source="QD0-zCTOTz4r3Engb4al-17" target="QD0-zCTOTz4r3Engb4al-12">
          <mxGeometry width="50" height="50" relative="1" as="geometry">
            <mxPoint x="360" y="170" as="sourcePoint" />
            <mxPoint x="410" y="120" as="targetPoint" />
          </mxGeometry>
        </mxCell>
        <mxCell id="QD0-zCTOTz4r3Engb4al-72" value="Store lostItem Info" style="edgeLabel;html=1;align=center;verticalAlign=middle;resizable=0;points=[];" vertex="1" connectable="0" parent="QD0-zCTOTz4r3Engb4al-71">
          <mxGeometry x="-0.0839" relative="1" as="geometry">
            <mxPoint as="offset" />
          </mxGeometry>
        </mxCell>
        <mxCell id="QD0-zCTOTz4r3Engb4al-73" value="" style="endArrow=classic;html=1;rounded=0;entryX=0.822;entryY=0.967;entryDx=0;entryDy=0;entryPerimeter=0;" edge="1" parent="1" source="QD0-zCTOTz4r3Engb4al-19" target="QD0-zCTOTz4r3Engb4al-13">
          <mxGeometry width="50" height="50" relative="1" as="geometry">
            <mxPoint x="390" y="170" as="sourcePoint" />
            <mxPoint x="440" y="120" as="targetPoint" />
          </mxGeometry>
        </mxCell>
        <mxCell id="QD0-zCTOTz4r3Engb4al-74" value="Search for Matching lostItem" style="edgeLabel;html=1;align=center;verticalAlign=middle;resizable=0;points=[];" vertex="1" connectable="0" parent="QD0-zCTOTz4r3Engb4al-73">
          <mxGeometry x="-0.001" y="2" relative="1" as="geometry">
            <mxPoint as="offset" />
          </mxGeometry>
        </mxCell>
      </root>
    </mxGraphModel>
  </diagram>
</mxfile>
